#define bullet_width 8
#define bullet_height 8
static unsigned char bullet_bits[] = {
   0x00, 0x08, 0x10, 0x20, 0x20, 0x10, 0x08, 0x00 };
