/* XPM */
static char *close_prelight[] = {
/* columns rows colors chars-per-pixel */
"34 26 65 1 ",
"  c #2E7D43",
". c #2E8044",
"X c #2F8245",
"o c #308547",
"O c #35834B",
"+ c #36834B",
"@ c #37834B",
"# c #318648",
"$ c #37844B",
"% c #318848",
"& c #318849",
"* c #338D4C",
"= c #348E4C",
"- c #348F4C",
"; c #35914D",
": c #35914E",
"> c #35924E",
", c #48905B",
"< c #48905C",
"1 c #49905C",
"2 c #549867",
"3 c #549967",
"4 c #559A67",
"5 c #5DA871",
"6 c #5EA972",
"7 c #5FA973",
"8 c #66A577",
"9 c #66A677",
"0 c #60A973",
"q c #60AA74",
"w c #63AB76",
"e c #64AC77",
"r c #66A678",
"t c #67A678",
"y c #68A678",
"u c #68A778",
"i c #65AC78",
"p c #67AD79",
"a c #67AD7A",
"s c #68AE7A",
"d c #6CB07E",
"f c #71AD81",
"g c #72AD81",
"h c #72AE83",
"j c #76B587",
"k c #76B687",
"l c #77B688",
"z c #7EB78E",
"x c #7BB88B",
"c c #7BB88C",
"v c #80B88F",
"b c #86BE95",
"n c #88BE96",
"m c #88BF96",
"M c #88BE97",
"N c #89BE97",
"B c #88BF97",
"V c #89BF98",
"C c #8ABE98",
"Z c #9BC9A8",
"A c #9CCAA8",
"S c #A0CCAB",
"D c #D4E8D9",
"F c #D4E8DA",
"G c #FDFEFD",
/* pixels */
">>>>>>>>>>>>-%X.  .X%->>>>>>>>>>>>",
">>>>>>>>>>*X$4hzCCzg4$X=>>>>>>>>>>",
">>>>>>>>:o@yVxdi77idxBu+o:>>>>>>>>",
">>>>>>>;X1bk055555555qkb,X;>>>>>>>",
">>>>>>:X4mp555555555555aB4X:>>>>>>",
">>>>>>o<nw55555555555555wB,#>>>>>>",
">>>>>*@bp5555555555555555ab+=>>>>>",
">>>>>Xyj555555555555555555lrX>>>>>",
">>>>-$V0555556555555655555qM@->>>>",
">>>>%4x555556FA5555AF655555c4&>>>>",
">>>>Xgd555555ZGS55ZGS555555dgX>>>>",
">>>>.ve5555555ZGSZGS5555555iz.>>>>",
">>>> N055555555AGGA555555550N >>>>",
">>>> M055555555AGGA555555550M >>>>",
">>>>.ze5555555ZGSZGS5555555iz.>>>>",
">>>>Xgd555555ZGS55ZGS555555dfX>>>>",
">>>>%4x555556DA5555AF655555c2&>>>>",
">>>>-$Mq555556555555655555qM@->>>>",
">>>>>Xyk555555555555555555l9X>>>>>",
">>>>>=+ba5555555555555555sb+=>>>>>",
">>>>>>o,Mw55555555555555wB,#>>>>>>",
">>>>>>:X4Ma555555555555sM3X:>>>>>>",
">>>>>>>;X,blq55555555qlb,X;>>>>>>>",
">>>>>>>>:oO8Mcdi00idcMt+#:>>>>>>>>",
">>>>>>>>>>=X@3gzNNzg2@X=>>>>>>>>>>",
">>>>>>>>>>>>-&X.  .X&->>>>>>>>>>>>"
};
