/* XPM */
static char *close_pressed[] = {
/* columns rows colors chars-per-pixel */
"34 26 42 1 ",
"  c #2E7D43",
". c #2E8044",
"X c #2F8245",
"o c #308547",
"O c #328148",
"+ c #348249",
"@ c #35834A",
"# c #318648",
"$ c #318848",
"% c #318849",
"& c #338D4C",
"* c #348E4C",
"= c #348F4C",
"- c #35914D",
"; c #35914E",
": c #35924E",
"> c #408B55",
", c #418B55",
"< c #4A925E",
"1 c #4B935E",
"2 c #569C69",
"3 c #579D69",
"4 c #589E6A",
"5 c #589E6B",
"6 c #599F6C",
"7 c #60A472",
"8 c #60A573",
"9 c #69AB7B",
"0 c #6AAC7C",
"q c #71B282",
"w c #72B283",
"e c #75B385",
"r c #75B485",
"t c #75B486",
"y c #75B586",
"u c #76B687",
"i c #AAD1B5",
"p c #ABD2B5",
"a c #AED3B8",
"s c #DAEBDF",
"d c #DBECDF",
"f c #FDFEFE",
/* pixels */
"::::::::::::=$X.  .X$=::::::::::::",
"::::::::::&X@189ww971@X*::::::::::",
"::::::::;o+5tyyyyyyyyr6+o;::::::::",
":::::::-X,qyyyyyyyyyyyyq,X-:::::::",
"::::::;X1yyyyyyyyyyyyyyyy1X;::::::",
"::::::o>tyyyyyyyyyyyyyyyyy,#::::::",
":::::&+qyyyyyyyyyyyyyyyyyyq+*:::::",
":::::X5yyyyyyyyyyyyyyyyyyyy4X:::::",
"::::=@tyyyyyyuyyyyyyuyyyyyye+=::::",
"::::$1yyyyyyudpyyyypduyyyyyy1%::::",
"::::X7yyyyyyyifayyifayyyyyyy7X::::",
"::::.0yyyyyyyyifaifayyyyyyyy9.::::",
":::: wyyyyyyyyypffpyyyyyyyyyw ::::",
":::: qyyyyyyyyypffpyyyyyyyyyq ::::",
"::::.9yyyyyyyyifaifayyyyyyyy9.::::",
"::::X7yyyyyyyifayyifayyyyyyy7X::::",
"::::$1yyyyyyuspyyyypduyyyyyy<%::::",
"::::=@eyyyyyyuyyyyyyuyyyyyye+=::::",
":::::X5yyyyyyyyyyyyyyyyyyyy3X:::::",
":::::*+qyyyyyyyyyyyyyyyyyyq+*:::::",
"::::::o>tyyyyyyyyyyyyyyyyy,#::::::",
"::::::;X1tyyyyyyyyyyyyyyt1X;::::::",
":::::::-X,qyyyyyyyyyyyyq,X-:::::::",
"::::::::;oO2eyyyyyyyye5+#;::::::::",
"::::::::::*X+179ww97<+X*::::::::::",
"::::::::::::=%X.  .X%=::::::::::::"
};
