/* XPM */
static char *hide_inactive[] = {
/* columns rows colors chars-per-pixel */
"34 26 45 1 ",
"  c #7EA689",
". c #80A78B",
"X c #81A78B",
"o c #80A88B",
"O c #81A98B",
"+ c #80A88C",
"@ c #81A88C",
"# c #83AC8E",
"$ c #87AE92",
"% c #87AF92",
"& c #87AF93",
"* c #86B091",
"= c #87B192",
"- c #89B394",
"; c #8BB295",
": c #8CB396",
"> c #8CB397",
", c #89B494",
"< c #8CB497",
"1 c #8EBB9A",
"2 c #8FBC9B",
"3 c #90BC9B",
"4 c #93B99C",
"5 c #92BA9D",
"6 c #93BA9D",
"7 c #93BB9D",
"8 c #94BB9E",
"9 c #90BD9C",
"0 c #92BF9E",
"q c #97BEA1",
"w c #96BEA2",
"e c #96BFA2",
"r c #92C09E",
"t c #93C19F",
"y c #9BC2A6",
"u c #9BC3A6",
"i c #9CC3A6",
"p c #9FC7AA",
"a c #A0C7AA",
"s c #A0C7AB",
"d c #A0C8AB",
"f c #A1C8AB",
"g c #A1C9AC",
"h c #A2C9AC",
"j c #DEECE2",
/* pixels */
"tttttttttttt3-#O  O#-3tttttttttttt",
"tttttttttt1#X<quaaue<X#2tttttttttt",
"ttttttttr*+5ghhhhhhhhf8+*rtttttttt",
"ttttttt0#&dhhhhhhhhhhhhs%#0ttttttt",
"ttttttr#:hhhhhhhhhhhhhhhh<#rtttttt",
"tttttt*$ghhhhhhhhhhhhhhhhh&=tttttt",
"ttttt1+dhhhhhhhhhhhhhhhhhhpo2ttttt",
"ttttt#7hhhhhhhhhhhhhhhhhhhh6#ttttt",
"tttt3Xghhhhhhhhhhhhhhhhhhhhd@3tttt",
"tttt-:hhhhhhhhhhhhhhhhhhhhhh<,tttt",
"tttt#ehhhhhhhhhhhhhhhhhhhhhhw#tttt",
"ttttOihhhhhhhhhhhhhhhhhhhhhhuOtttt",
"tttt ahhhhhhhhhhhhhhhhhhhhhha tttt",
"tttt dhhhhhhhhhhhhhhhhhhhhhhs tttt",
"ttttOuhhhhhhhhhhhhhhhhhhhhhhyOtttt",
"tttt#whhhhhhhjjjjjjjjhhhhhhhw#tttt",
"tttt-<hhhhhhhhhhhhhhhhhhhhhh;,tttt",
"tttt3Xdhhhhhhhhhhhhhhhhhhhhd+9tttt",
"ttttt#5hhhhhhhhhhhhhhhhhhhh4#ttttt",
"ttttt2oshhhhhhhhhhhhhhhhhhp.2ttttt",
"tttttt*$ghhhhhhhhhhhhhhhhh%=tttttt",
"ttttttr#<ghhhhhhhhhhhhhhg>#rtttttt",
"ttttttt0#%shhhhhhhhhhhhp$#0ttttttt",
"ttttttttr*+5dhhhhhhhhd5o=rtttttttt",
"tttttttttt2#@>wyaayw;+#2tttttttttt",
"tttttttttttt3,#O  O#,9tttttttttttt"
};
