/* XPM */
static char *hide_prelight[] = {
/* columns rows colors chars-per-pixel */
"34 26 59 1 ",
"  c #2E7D43",
". c #2E8044",
"X c #2F8245",
"o c #308547",
"O c #35834B",
"+ c #36834B",
"@ c #37834B",
"# c #318648",
"$ c #37844B",
"% c #318848",
"& c #318849",
"* c #338D4C",
"= c #348E4C",
"- c #348F4C",
"; c #35914D",
": c #35914E",
"> c #35924E",
", c #48905B",
"< c #48905C",
"1 c #49905C",
"2 c #549867",
"3 c #549967",
"4 c #559A67",
"5 c #5DA871",
"6 c #5FA973",
"7 c #66A577",
"8 c #66A677",
"9 c #60A973",
"0 c #60AA74",
"q c #63AB76",
"w c #64AC77",
"e c #66A678",
"r c #67A678",
"t c #68A678",
"y c #68A778",
"u c #65AC78",
"i c #67AD79",
"p c #67AD7A",
"a c #68AE7A",
"s c #6CB07E",
"d c #71AD81",
"f c #72AD81",
"g c #72AE83",
"h c #76B587",
"j c #76B687",
"k c #77B688",
"l c #7EB78E",
"z c #7BB88B",
"x c #7BB88C",
"c c #80B88F",
"v c #86BE95",
"b c #88BE96",
"n c #88BF96",
"m c #88BE97",
"M c #89BE97",
"N c #88BF97",
"B c #89BF98",
"V c #8ABE98",
"C c white",
/* pixels */
">>>>>>>>>>>>-%X.  .X%->>>>>>>>>>>>",
">>>>>>>>>>*X$4glVVlf4$X=>>>>>>>>>>",
">>>>>>>>:o@tBzsu66uszNy+o:>>>>>>>>",
">>>>>>>;X1vj9555555550jv,X;>>>>>>>",
">>>>>>:X4ni555555555555pN4X:>>>>>>",
">>>>>>o<bq55555555555555qN,#>>>>>>",
">>>>>*@vi5555555555555555pv+=>>>>>",
">>>>>Xth555555555555555555keX>>>>>",
">>>>-$B95555555555555555550m@->>>>",
">>>>%4z55555555555555555555x4&>>>>",
">>>>Xfs55555555555555555555sfX>>>>",
">>>>.cw55555555555555555555ul.>>>>",
">>>> M9555555555555555555559M >>>>",
">>>> m9555555555555555555559m >>>>",
">>>>.lw55555555555555555555ul.>>>>",
">>>>Xfs555555CCCCCCCC555555sdX>>>>",
">>>>%4z55555555555555555555x2&>>>>",
">>>>-$m05555555555555555550m@->>>>",
">>>>>Xtj555555555555555555k8X>>>>>",
">>>>>=+vp5555555555555555av+=>>>>>",
">>>>>>o,mq55555555555555qN,#>>>>>>",
">>>>>>:X4mp555555555555am3X:>>>>>>",
">>>>>>>;X,vk0555555550kv,X;>>>>>>>",
">>>>>>>>:oO7mxsu99usxmr+#:>>>>>>>>",
">>>>>>>>>>=X@3flMMlf2@X=>>>>>>>>>>",
">>>>>>>>>>>>-&X.  .X&->>>>>>>>>>>>"
};
