/* XPM */
static char *hide_active[] = {
/* columns rows colors chars-per-pixel */
"34 26 33 1 ",
"  c #2E7D43",
". c #2E8044",
"X c #2F8245",
"o c #318046",
"O c #328147",
"+ c #308547",
"@ c #318648",
"# c #318848",
"$ c #318849",
"% c #338D4C",
"& c #348E4C",
"* c #348F4C",
"= c #39884F",
"- c #3A884F",
"; c #35914D",
": c #35914E",
"> c #35924E",
", c #408D55",
"< c #408E55",
"1 c #48955C",
"2 c #48965D",
"3 c #49965E",
"4 c #49975E",
"5 c #4E9A63",
"6 c #4E9B64",
"7 c #55A069",
"8 c #56A16A",
"9 c #5AA66E",
"0 c #5BA66F",
"q c #5DA671",
"w c #5DA771",
"e c #5DA871",
"r c white",
/* pixels */
">>>>>>>>>>>>*#X.  .X#*>>>>>>>>>>>>",
">>>>>>>>>>%XO<670075<OX&>>>>>>>>>>",
">>>>>>>>:+o3weeeeeeeew4o+:>>>>>>>>",
">>>>>>>;X-9eeeeeeeeeeee9-X;>>>>>>>",
">>>>>>:X<eeeeeeeeeeeeeeee<X:>>>>>>",
">>>>>>+=weeeeeeeeeeeeeeeee-@>>>>>>",
">>>>>%o9eeeeeeeeeeeeeeeeee9o&>>>>>",
">>>>>X3eeeeeeeeeeeeeeeeeeee2X>>>>>",
">>>>*Oweeeeeeeeeeeeeeeeeeeeqo*>>>>",
">>>>#<eeeeeeeeeeeeeeeeeeeeee<$>>>>",
">>>>X5eeeeeeeeeeeeeeeeeeeeee5X>>>>",
">>>>.8eeeeeeeeeeeeeeeeeeeeee7.>>>>",
">>>> 0eeeeeeeeeeeeeeeeeeeeee0 >>>>",
">>>> 9eeeeeeeeeeeeeeeeeeeeee9 >>>>",
">>>>.7eeeeeeeeeeeeeeeeeeeeee7.>>>>",
">>>>X5eeeeeeerrrrrrrreeeeeee5X>>>>",
">>>>#<eeeeeeeeeeeeeeeeeeeeee,$>>>>",
">>>>*Oqeeeeeeeeeeeeeeeeeeeeqo*>>>>",
">>>>>X3eeeeeeeeeeeeeeeeeeee2X>>>>>",
">>>>>&o9eeeeeeeeeeeeeeeeee9o&>>>>>",
">>>>>>+=weeeeeeeeeeeeeeeee-@>>>>>>",
">>>>>>:X<weeeeeeeeeeeeeew<X:>>>>>>",
">>>>>>>;X-9eeeeeeeeeeee9-X;>>>>>>>",
">>>>>>>>:+o1qeeeeeeeeq3o@:>>>>>>>>",
">>>>>>>>>>&Xo<570075,oX&>>>>>>>>>>",
">>>>>>>>>>>>*$X.  .X$*>>>>>>>>>>>>"
};
