/* XPM */
static char *top_right_inactive[] = {
/* columns rows colors chars-per-pixel */
"8 38 8 1 ",
"  c None",
". c #93C09F",
"X c #92C19F",
"o c #93C19F",
"O c #94C19F",
"+ c #93C0A0",
"@ c #93C1A0",
"# c #93C2A0",
/* pixels */
"o.X     ",
"oooo.   ",
"ooooo#  ",
"oooooo. ",
"ooooooo ",
"ooooooo+",
"ooooooo@",
"oooooooO",
"oooooooo",
"oooooooo",
"oooooooo",
"oooooooo",
"oooooooo",
"oooooooo",
"oooooooo",
"oooooooo",
"oooooooo",
"oooooooo",
"oooooooo",
"oooooooo",
"oooooooo",
"oooooooo",
"oooooooo",
"oooooooo",
"oooooooo",
"oooooooo",
"oooooooo",
"oooooooo",
"oooooooo",
"oooooooo",
"oooooooo",
"oooooooo",
"oooooooo",
"oooooooo",
"oooooooo",
"oooooooo",
"oooooooo",
"oooooooo"
};
